<svg width="174" height="197" viewBox="0 0 174 197" fill="none" xmlns="http://www.w3.org/2000/svg">
<path d="M51.8984 32.8377C52.2713 30.5037 54.9604 29.3506 56.8012 30.7356L95.0983 59.5494C97.4518 61.3201 96.1089 65.1724 93.1381 65.1724H74.5293L50.2377 65.1727C48.3821 65.1727 46.9974 63.5158 47.2952 61.6518L51.8984 32.8377Z" fill="#83CD82"/>
<path d="M122.038 32.8377C121.665 30.5037 118.976 29.3506 117.135 30.7356L78.8383 59.5494C76.4847 61.3201 77.8276 65.1724 80.7985 65.1724H99.4072L123.699 65.1727C125.554 65.1727 126.939 63.5158 126.641 61.6518L122.038 32.8377Z" fill="#83CD82"/>
<path d="M83.964 9.0346C84.889 6.18963 88.9138 6.18964 89.8388 9.03461L104.913 55.3996C105.562 57.3954 104.075 59.4434 101.976 59.4434H71.8269C69.7282 59.4434 68.2406 57.3954 68.8895 55.3996L83.964 9.0346Z" fill="#83CD82"/>
<path d="M0 141.678C0 103.58 30.8844 72.6956 68.9823 72.6956H105.018C143.116 72.6956 174 103.58 174 141.678V170.911C174 185.127 162.476 196.651 148.26 196.651H25.7397C11.524 196.651 0 185.127 0 170.911V141.678Z" fill="#F1A960"/>
<path d="M63.3902 152.965C66.6257 152.965 69.2485 147.022 69.2485 139.691C69.2485 132.36 66.6257 126.417 63.3902 126.417C60.1548 126.417 57.532 132.36 57.532 139.691C57.532 147.022 60.1548 152.965 63.3902 152.965Z" fill="#58565D"/>
<path d="M109.191 152.965C112.426 152.965 115.049 147.022 115.049 139.691C115.049 132.36 112.426 126.417 109.191 126.417C105.956 126.417 103.333 132.36 103.333 139.691C103.333 147.022 105.956 152.965 109.191 152.965Z" fill="#58565D"/>
</svg>
